Jump_normalized_pl15_filtered_grf
version=1
nRows=23
nColumns=37
inDegrees=yes
endheader
time		1_ground_force_vx		1_ground_force_vy		1_ground_force_vz		1_ground_force_px		1_ground_force_py		1_ground_force_pz		1_ground_torque_x		1_ground_torque_y		1_ground_torque_z		2_ground_force_vx		2_ground_force_vy		2_ground_force_vz		2_ground_force_px		2_ground_force_py		2_ground_force_pz		2_ground_torque_x		2_ground_torque_y		2_ground_torque_z		3_ground_force_vx		3_ground_force_vy		3_ground_force_vz		3_ground_force_px		3_ground_force_py		3_ground_force_pz		3_ground_torque_x		3_ground_torque_y		3_ground_torque_z		4_ground_force_vx		4_ground_force_vy		4_ground_force_vz		4_ground_force_px		4_ground_force_py		4_ground_force_pz		4_ground_torque_x		4_ground_torque_y		4_ground_torque_z		
1.382833		0.000000		-0.000000		-0.000000		0.107867		0.000000		0.205353		-0.000000		-0.000000		0.000000		0.000000		-0.000000		-0.000000		-0.145997		0.000000		0.260919		-0.000000		0.000000		-0.000000		26.923219		63.370334		99.241613		0.374658		1.309169		1.918012		-1.374998		-3.236522		-5.068581		0.892290		272.655008		441.185759		-0.265588		1.309111		1.929677		0.044776		13.682130		22.139216		
1.386066		0.000000		-0.000000		-0.000000		0.107867		0.000000		0.205353		-0.000000		-0.000000		0.000000		0.000000		-0.000000		-0.000000		-0.145997		0.000000		0.260919		-0.000000		0.000000		-0.000000		25.856781		50.444334		78.766149		0.374697		1.309208		1.918109		-1.245912		-2.430771		-3.795525		0.770292		263.103439		438.455231		-0.265549		1.309143		1.929676		0.220223		5.042054		27.115823		
1.389298		-0.000000		-0.000000		-0.000000		0.107867		0.000000		0.205353		-0.000000		-0.000000		0.000000		0.000000		0.000000		0.000000		-0.145997		0.000000		0.260919		0.000000		-0.000000		0.000000		24.890802		38.092257		58.877759		0.374735		1.309265		1.918211		-1.091445		-1.670642		-2.582277		0.520815		253.613831		434.851224		-0.265503		1.309172		1.929652		1.327165		-49.534638		58.601675		
1.392530		-0.000000		0.000000		0.000000		0.107867		0.000000		0.205353		0.000000		0.000000		-0.000000		0.000000		0.000000		0.000000		-0.145997		0.000000		0.260919		0.000000		-0.000000		0.000000		24.121020		26.843273		40.448858		0.374774		1.309337		1.918311		-0.895195		-0.996340		-1.501355		0.109715		244.152787		430.240632		-0.265453		1.309205		1.929608		1.202337		-49.227465		57.169251		
1.395763		-0.000000		0.000000		0.000000		0.107867		0.000000		0.205353		0.000000		0.000000		-0.000000		0.000000		0.000000		0.000000		-0.145997		0.000000		0.260919		0.000000		-0.000000		0.000000		23.568097		17.281383		24.539992		0.374817		1.309414		1.918397		-0.622339		-0.456968		-0.649074		-0.476039		234.701287		424.517036		-0.265403		1.309244		1.929539		1.050787		-48.763912		55.666362		
1.398995		-0.000000		0.000000		0.000000		0.107867		0.000000		0.205353		0.000000		0.000000		-0.000000		-0.000000		0.000000		0.000000		-0.145997		0.000000		0.260919		0.000000		-0.000000		0.000000		23.183725		9.844899		12.048941		0.374862		1.309485		1.918461		-0.294518		-0.125085		-0.153098		-1.194855		225.299748		417.648785		-0.265359		1.309288		1.929450		0.870613		-48.135178		54.090195		
1.402227		-0.000000		0.000000		0.000000		0.107867		0.000000		0.205353		0.000000		0.000000		-0.000000		-0.000000		0.000000		0.000000		-0.145997		0.000000		0.260919		0.000000		-0.000000		0.000000		22.893325		4.754894		3.501962		0.374908		1.309542		1.918495		-0.108648		-0.022632		-0.016731		-1.967308		216.062589		409.638176		-0.265325		1.309335		1.929342		0.662206		-47.330992		52.453562		
1.405460		0.000000		0.000000		0.000000		0.107867		0.000000		0.205353		0.000000		0.000000		-0.000000		-0.000000		-0.000000		-0.000000		-0.145997		0.000000		0.260919		-0.000000		0.000000		-0.000000		22.629372		1.852219		-1.287290		0.374952		1.309580		1.918495		-0.104041		-0.008512		0.005925		-2.696511		207.161298		400.547051		-0.265302		1.309383		1.929217		0.427942		-46.347079		50.784121		
1.408692		0.000000		-0.000000		-0.000000		0.107867		0.000000		0.205353		-0.000000		-0.000000		0.000000		-0.000000		-0.000000		-0.000000		-0.145997		0.000000		0.260919		-0.000000		0.000000		-0.000000		22.359802		0.719686		-3.021389		0.374991		1.309607		1.918467		-0.120940		-0.003892		0.016343		-3.272886		198.802192		390.404728		-0.265293		1.309431		1.929074		0.172166		-45.175441		49.112710		
1.411924		0.000000		-0.000000		-0.000000		0.107867		0.000000		0.205353		-0.000000		-0.000000		0.000000		-0.000000		-0.000000		-0.000000		-0.145997		0.000000		0.260919		-0.000000		0.000000		-0.000000		22.095445		0.739793		-2.785518		0.375022		1.309632		1.918421		-0.114212		-0.003823		0.014400		-3.603035		191.106524		379.203191		-0.265295		1.309475		1.928919		-0.099957		-43.811041		47.454331		
1.415157		0.000000		-0.000000		-0.000000		0.107867		0.000000		0.205353		-0.000000		-0.000000		0.000000		0.000000		-0.000000		-0.000000		-0.145997		0.000000		0.260919		-0.000000		0.000000		-0.000000		21.881721		1.308980		-1.642126		0.375046		1.309665		1.918367		-0.101766		-0.006086		0.007640		-3.607507		183.997484		366.816977		-0.265306		1.309516		1.928750		-0.381392		-42.245152		45.786951		
1.418389		0.000000		-0.000000		-0.000000		0.107867		0.000000		0.205353		-0.000000		-0.000000		0.000000		0.000000		-0.000000		-0.000000		-0.145997		0.000000		0.260919		-0.000000		0.000000		-0.000000		21.774488		1.953469		-0.414726		0.375060		1.309710		1.918310		-0.095068		-0.008528		0.001812		-3.233574		177.093847		352.995201		-0.265323		1.309554		1.928562		-0.659973		-40.468114		44.038771		
1.421621		-0.000000		-0.000000		-0.000000		0.107867		0.000000		0.205353		-0.000000		0.000000		0.000000		0.000000		0.000000		0.000000		-0.145997		0.000000		0.260919		0.000000		-0.000000		0.000000		21.813975		2.403111		0.433268		0.375067		1.309766		1.918256		-0.091981		-0.010133		-0.001826		-2.500198		169.696048		337.359677		-0.265342		1.309588		1.928356		-0.919756		-38.468429		42.088577		
1.424854		-0.000000		0.000000		0.000000		0.107867		0.000000		0.205353		0.000000		0.000000		-0.000000		0.000000		0.000000		0.000000		-0.145997		0.000000		0.260919		0.000000		-0.000000		0.000000		22.004216		2.579044		0.765779		0.375072		1.309828		1.918202		-0.088947		-0.010425		-0.003096		-1.527761		160.934519		319.464501		-0.265360		1.309622		1.928131		-1.140590		-36.232993		39.792042		
1.428086		-0.000000		0.000000		0.000000		0.107867		0.000000		0.205353		0.000000		0.000000		-0.000000		0.000000		0.000000		0.000000		-0.145997		0.000000		0.260919		0.000000		-0.000000		0.000000		22.307037		2.535859		0.664081		0.375074		1.309891		1.918147		-0.086219		-0.009802		-0.002567		-0.556137		150.035071		298.880843		-0.265378		1.309654		1.927888		-1.301907		-33.745498		37.024004		
1.431318		-0.000000		0.000000		0.000000		0.107867		0.000000		0.205353		0.000000		0.000000		-0.000000		-0.000000		0.000000		0.000000		-0.145997		0.000000		0.260919		0.000000		-0.000000		0.000000		22.654199		2.388143		0.300837		0.375073		1.309948		1.918084		-0.085432		-0.009006		-0.001135		0.064505		136.564016		275.293720		-0.265396		1.309687		1.927635		-1.389630		-30.988127		33.717927		
1.434551		-0.000000		0.000000		0.000000		0.107867		0.000000		0.205353		0.000000		0.000000		-0.000000		-0.000000		0.000000		0.000000		-0.145997		0.000000		0.260919		0.000000		-0.000000		0.000000		22.965948		2.247823		-0.142291		0.375071		1.309997		1.918006		-0.087086		-0.008524		0.000539		-0.017091		120.651670		248.613743		-0.265419		1.309722		1.927380		-1.397678		-27.946467		29.903363		
1.437783		0.000000		0.000000		0.000000		0.107867		0.000000		0.205353		0.000000		0.000000		-0.000000		-0.000000		-0.000000		-0.000000		-0.145997		0.000000		0.260919		-0.000000		0.000000		-0.000000		23.167572		2.180942		-0.519305		0.375067		1.310035		1.917905		-0.090338		-0.008504		0.002025		-1.063195		102.925979		218.993877		-0.265452		1.309758		1.927134		-1.328738		-24.616731		25.696171		
1.441015		0.000000		-0.000000		-0.000000		0.107867		0.000000		0.205353		-0.000000		-0.000000		0.000000		-0.000000		-0.000000		-0.000000		-0.145997		0.000000		0.260919		-0.000000		0.000000		-0.000000		23.207552		2.192996		-0.735482		0.375062		1.310069		1.917780		-0.093794		-0.008863		0.002972		-3.129596		84.384623		186.942121		-0.265496		1.309794		1.926906		-1.194608		-21.027402		21.282727		
1.444247		0.000000		-0.000000		-0.000000		0.107867		0.000000		0.205353		-0.000000		-0.000000		0.000000		-0.000000		-0.000000		-0.000000		-0.145997		0.000000		0.260919		-0.000000		0.000000		-0.000000		23.072247		2.245970		-0.750586		0.375058		1.310106		1.917635		-0.096365		-0.009381		0.003135		-6.047049		66.124376		153.279571		-0.265547		1.309825		1.926697		-0.680416		-7.192289		12.568520		
1.447480		0.000000		-0.000000		-0.000000		0.107867		0.000000		0.205353		-0.000000		-0.000000		0.000000		0.000000		-0.000000		-0.000000		-0.145997		0.000000		0.260919		-0.000000		0.000000		-0.000000		22.806379		2.288240		-0.589197		0.375057		1.310154		1.917476		-0.097657		-0.009798		0.002523		-9.443835		49.115263		119.258639		-0.265600		1.309846		1.926505		-0.486733		2.531408		6.146604		
1.450712		0.000000		-0.000000		-0.000000		0.107867		0.000000		0.205353		-0.000000		-0.000000		0.000000		0.000000		-0.000000		-0.000000		-0.145997		0.000000		0.260919		-0.000000		0.000000		-0.000000		22.497014		2.284734		-0.317195		0.375064		1.310214		1.917310		-0.097881		-0.009941		0.001380		-12.859145		34.128780		86.525142		-0.265644		1.309849		1.926327		-0.651924		1.730395		4.386968		
1.453944		-0.000000		-0.000000		-0.000000		0.107867		0.000000		0.205353		-0.000000		-0.000000		0.000000		0.000000		0.000000		0.000000		-0.145997		0.000000		0.260919		0.000000		-0.000000		0.000000		22.236782		2.231697		-0.017426		0.375079		1.310281		1.917139		-0.097565		-0.009791		0.000076		-15.847976		21.649988		56.965640		-0.265673		1.309835		1.926155		-0.770355		1.052501		2.769334		
